<?xml version="1.0" encoding="utf-8"?>
<!-- Generator: Adobe Adobe Illustrator 24.2.0, SVG Export Plug-In . SVG Version: 6.00 Build 0)  -->
<svg version="1.1" id="Layer_1" xmlns="http://www.w3.org/2000/svg" xmlns:xlink="http://www.w3.org/1999/xlink" x="0px" y="0px"
	 width="595.28px" height="841.89px" viewBox="0 0 595.28 841.89" style="enable-background:new 0 0 595.28 841.89;"
	 xml:space="preserve">
<style type="text/css">
	.st0{fill:#F9F3E0;}
	.st1{fill:#FEFEFC;}
	.st2{fill:#F87D1D;}
	.st3{fill:#F58222;}
	.st4{fill:#FCFBF7;}
	.st5{fill:#FAF8F0;}
</style>
<g>
	<path class="st0" d="M501.89,269.33c0,0,0.01-0.01,0.01-0.01c-0.05-0.06-0.1-0.13-0.17-0.19c-3.8-1.54-7.19-3.13-11.01-4.7
		c-0.14-0.02-0.26-0.03-0.39-0.05c-0.19,0.1-0.37,0.21-0.55,0.31"/>
	<path class="st1" d="M308.39,379.9c-11.46,7.44-27.23,1.61-31.97-11.78c-1.48-4.17-2.2-8.78-2.37-13.22
		c-0.84-21.78-0.63-43.63-2.32-65.34c-0.93-11.96-9.57-20.25-20.48-24.72c-20.69-8.48-39.87,2.44-49.14,20.19
		c-1.27,2.43-1.35,5.65-1.4,8.51c-0.43,21.8-0.94,43.6-0.97,65.4c-0.02,11.5-8.13,20.68-19.15,23.01c-9.54,2.02-21-4.94-24.9-15.21
		c-1.32-3.48-2.08-7.36-2.16-11.07c-0.42-21.07-0.57-42.15-0.79-63.23c-0.19-17.84-14.04-31.76-31.99-32.32
		c-17.46-0.54-31.28,6-38.22,22.17c-3,6.99-2.22,15.59-3.17,23.98c-0.2,17.6-0.1,34.69-0.69,51.76
		c-0.33,9.62-4.93,17.44-13.79,21.86c-11.18,5.59-25.6-0.57-29.63-12.62c-1.41-4.21-2.2-8.8-2.25-13.23
		c-0.25-20.17-0.68-40.36-0.02-60.51c1.07-32.41,15.37-57.63,44.64-72.71c29.67-15.28,58.91-12.27,86.76,5.5
		c4.95,3.16,9.37,7.16,13.09,10.04c8.8-5.45,16.83-11.3,25.61-15.67c16.61-8.26,34.2-8.81,52.13-4.57
		c24.43,5.78,42.44,19.97,54.75,41.43c6.46,11.26,10.19,23.41,10.16,36.57c-0.05,21.08,0.02,42.16,0.05,63.24
		C320.18,366.92,316.39,374.71,308.39,379.9z M383.49,366.32c-0.05,11.06-11.19,23.15-26.33,20.74
		c-10.65-1.89-19.26-11.19-19.33-21.61c-0.28-42.3-0.57-84.61-0.25-126.91c0.14-18.01,13.26-28.06,29.94-24.31
		c8.22,1.85,16.05,11.32,16.07,20.28C383.67,278.45,383.7,322.39,383.49,366.32z M504.8,377.49c-42.13,13.16-84.1-6.58-100.95-44.98
		c-18.21-41.51-1.66-86.46,38.51-107.23c0.6-0.32,1.19-0.52,1.78-0.69c0.75-0.49,1.67-0.96,2.77-1.43c-0.41,0.35-0.92,0.7-1.51,1.05
		c0.55-0.18,1.09-0.41,1.62-0.78c0.27-0.24,0.27-0.27,0.28-0.26c0.48-0.28,0.99-0.47,1.53-0.62c0.99-0.52,2.17-1.04,3.55-1.53
		c-0.59,0.38-1.28,0.76-2.07,1.12c0.71-0.2,1.43-0.45,2.15-0.87c0.61-0.39,0.94-0.52,1.55-0.54c0.57-0.17,1.12-0.32,1.66-0.47
		c0.88-0.46,1.96-0.89,3.26-1.3c-0.32,0.22-0.7,0.43-1.1,0.63c0.38-0.13,0.76-0.27,1.16-0.42c0.81-0.28,1.28-0.39,2.1-0.44
		c0.52-0.02,0.68-0.14,0.86-0.17c0.94-0.17,1.79-0.31,2.57-0.44c2.63-0.68,5.57-1.37,8.86-2.15c0,16.18,0,31.15,0,46.31
		c4.31,0,8.2,0,13.04,0c0-0.44,0-0.87,0-1.3c-0.18-0.71-0.27-1.48-0.25-2.36c0.21-11.54,0-23.08,0.34-35.08
		c0.22-2.41,0.22-4.36,0.22-6.32c28.94,0.49,65.33,23.06,74.05,64.43C569.71,324.03,546.22,364.55,504.8,377.49z"/>
	<path class="st2" d="M320.12,294.13c0.03-13.16-3.7-25.31-10.16-36.57c-12.31-21.45-30.31-35.65-54.75-41.43
		c-17.92-4.24-35.52-3.69-52.13,4.57c-8.78,4.37-16.8,10.22-25.61,15.67c-3.72-2.88-8.14-6.88-13.09-10.04
		c-27.85-17.77-57.1-20.78-86.76-5.5c-29.27,15.08-43.57,40.3-44.64,72.71c-0.66,20.15-0.23,40.34,0.02,60.51
		c0.05,4.43,0.84,9.03,2.25,13.23c4.03,12.05,18.45,18.21,29.63,12.62c8.86-4.43,13.45-12.24,13.79-21.86
		c0.59-17.07,0.49-34.16,0.69-51.76c0.95-8.39,0.17-16.99,3.17-23.98c6.94-16.17,20.77-22.71,38.22-22.17
		c17.94,0.56,31.79,14.47,31.99,32.32c0.23,21.08,0.37,42.15,0.79,63.23c0.07,3.72,0.84,7.6,2.16,11.07
		c3.9,10.27,15.36,17.23,24.9,15.21c11.02-2.33,19.13-11.52,19.15-23.01c0.03-21.8,0.54-43.6,0.97-65.4
		c0.06-2.86,0.13-6.08,1.4-8.51c9.27-17.76,28.45-28.67,49.14-20.19c10.91,4.47,19.54,12.75,20.48,24.72
		c1.7,21.71,1.48,43.56,2.32,65.34c0.17,4.44,0.89,9.04,2.37,13.22c4.74,13.39,20.51,19.22,31.97,11.78
		c8-5.19,11.79-12.98,11.78-22.53C320.14,336.29,320.06,315.21,320.12,294.13z"/>
	<path class="st2" d="M486.71,217.2c0,1.96,0,3.91-0.22,6.32c-0.35,12-0.14,23.54-0.34,35.08c-0.02,0.88,0.07,1.65,0.25,2.36
		c0-12.59,0-24.84,0.15-37.48c0.18,10.65,0.4,21.72,0.12,32.77c-0.09,3.69,0.95,5.99,4.37,7.76c-0.25,0.12-0.48,0.24-0.71,0.37
		c0.13,0.02,0.25,0.03,0.39,0.05c3.81,1.57,7.2,3.16,11.01,4.7c0.07,0.06,0.12,0.12,0.17,0.19c6.17-6.51,11.85-13.03,18.1-18.95
		c4.1-3.88,6.16,1.2,8.78,3.09c2.76,1.99,3.73,4.16,0.69,7.01c-5.48,5.14-10.3,11-16.05,15.84c-4.63,3.89-3.68,2.93-2.43,5.27
		c-0.12,0.09-0.24,0.15-0.37,0.21c7.12,9.48,6.53,27.11-0.83,37.41c-16.94,23.72-51.43,20.72-63.84-5.56
		c-7.83-16.57-0.1-38.49,16.51-46.82c1.29-0.65,2.58-1.31,4.21-2.14c0.37-0.07,0.72-0.13,1.07-0.18c4.17-3.14,3.83-7.62,3.72-12.22
		c-0.2-8.15-0.01-16.31-0.06-24.47c-0.06-10.5,1.13-8.82-9.45-9.01c0.82-0.23,1.67-0.46,2.56-0.69c-0.78,0.13-1.63,0.27-2.57,0.44
		c-0.17,0.03-0.33,0.15-0.86,0.17c-0.82,0.06-1.29,0.16-2.1,0.44c-0.4,0.16-0.78,0.29-1.16,0.42c-0.86,0.44-1.89,0.86-3.13,1.24
		c0.29-0.2,0.62-0.39,0.97-0.57c-0.54,0.16-1.09,0.31-1.66,0.47c-0.61,0.03-0.94,0.15-1.55,0.54c-0.72,0.42-1.44,0.67-2.15,0.87
		c-0.77,0.36-1.63,0.71-2.59,1.05c0.34-0.22,0.71-0.43,1.12-0.64c-0.53,0.16-1.05,0.34-1.53,0.62c-0.01-0.01-0.01,0.02-0.28,0.26
		c-0.53,0.37-1.07,0.6-1.62,0.78c-0.64,0.37-1.38,0.74-2.23,1.09c0.27-0.24,0.61-0.48,0.97-0.71c-0.59,0.17-1.18,0.37-1.78,0.69
		c-40.16,20.77-56.72,65.73-38.51,107.23c16.85,38.39,58.82,58.13,100.95,44.98c41.42-12.93,64.91-53.45,55.96-95.86
		C552.04,240.26,515.65,217.68,486.71,217.2z"/>
	<path class="st2" d="M367.52,214.23c-16.69-3.75-29.81,6.31-29.94,24.31c-0.32,42.3-0.04,84.61,0.25,126.91
		c0.07,10.42,8.69,19.73,19.33,21.61c15.14,2.41,26.28-9.68,26.33-20.74c0.21-43.94,0.19-87.88,0.1-131.82
		C383.57,225.55,375.74,216.08,367.52,214.23z"/>
	<path class="st3" d="M472.49,227.19c0,10.17-0.01,20.34,0.01,30.5c0,2.65-0.14,5.15-3.5,6.56c-0.02,0.01-0.04,0.03-0.07,0.04
		c1.18-0.16,2.49-0.32,4.32-0.53c0,7.48,0.13,14.79-0.12,22.1c-0.04,1.34-1.49,2.73-2.5,3.91c-3.59,4.23-5.01,8.68-2.07,13.89
		c2.86,5.08,7.36,7.44,13.05,6.65c5.05-0.7,8.4-4.35,9.76-10.2c0.39-1.65,1.24-3.43,2.41-4.63c4.5-4.6,9.22-8.99,14.21-13.53
		c0.32-0.14,0.6-0.24,0.88-0.3c1.7-5.61-3.62-7.29-6.45-10.66c-0.17-0.14-0.31-0.28-0.42-0.41c-3.11,2.78-6.31,5.18-9.25,7.87
		c-1.96,1.8-3.52,4.04-5.26,6.08c-0.41-0.23-0.82-0.47-1.23-0.7c0-6.52,0-13.05,0-20.05c0.85,0.14,1.69,0.27,2.61,0.4
		c-1.38-0.87-2.13-1.92-2.47-3.24c0,0.44,0,0.87,0,1.3c-4.84,0-8.72,0-13.04,0c0-15.16,0-30.14,0-46.31
		c-3.29,0.77-6.23,1.47-8.86,2.15C472.29,216.83,472.49,217.84,472.49,227.19z"/>
	<path class="st3" d="M488.88,264.2c0.46,0.06,0.94,0.12,1.46,0.18c0.23-0.12,0.46-0.25,0.71-0.37c-3.42-1.77-4.46-4.08-4.37-7.76
		c0.28-11.06,0.06-22.13-0.12-32.77c-0.15,12.63-0.15,24.88-0.15,37.48C486.75,262.28,487.5,263.34,488.88,264.2z"/>
	<path class="st3" d="M471.39,227.79c0.05,8.16-0.14,16.32,0.06,24.47c0.11,4.59,0.45,9.07-3.72,12.22c0.39-0.06,0.79-0.12,1.2-0.18
		c0.02-0.01,0.04-0.03,0.07-0.04c3.36-1.42,3.51-3.91,3.5-6.56c-0.02-10.17-0.01-20.34-0.01-30.5c0-9.35-0.21-10.36-7.99-9.1
		c-0.89,0.23-1.74,0.46-2.56,0.69C472.52,218.98,471.33,217.3,471.39,227.79z"/>
	<path class="st3" d="M458.92,218.93c-1.3,0.41-2.38,0.84-3.26,1.3c0.71-0.2,1.42-0.42,2.16-0.67
		C458.23,219.36,458.6,219.15,458.92,218.93z"/>
	<path class="st3" d="M457.82,219.57c-0.74,0.25-1.45,0.47-2.16,0.67c-0.36,0.19-0.69,0.38-0.97,0.57
		C455.94,220.42,456.97,220,457.82,219.57z"/>
	<path class="st3" d="M452.38,221c-1.38,0.49-2.56,1.01-3.55,1.53c0.48-0.14,0.97-0.27,1.47-0.41
		C451.1,221.76,451.79,221.39,452.38,221z"/>
	<path class="st3" d="M450.31,222.12c-0.5,0.14-1,0.27-1.47,0.41c-0.4,0.21-0.78,0.43-1.12,0.64
		C448.68,222.83,449.54,222.48,450.31,222.12z"/>
	<path class="st3" d="M446.92,223.16c-1.11,0.47-2.02,0.94-2.77,1.43c0.43-0.13,0.85-0.24,1.27-0.38
		C446,223.86,446.5,223.51,446.92,223.16z"/>
	<path class="st3" d="M445.41,224.21c-0.42,0.14-0.84,0.26-1.27,0.38c-0.36,0.23-0.69,0.47-0.97,0.71
		C444.03,224.94,444.77,224.58,445.41,224.21z"/>
	<path class="st4" d="M509.27,281.95c-0.02,0.1-0.03,0.19-0.05,0.29c-3.57,3.96-7.12,7.36-10.64,10.77
		c-3.03,2.94-5.47,6.01-6.73,10.28c-1.49,5.05-5.42,8.03-10.94,8.47c-5.87,0.46-10.31-1.91-13.23-6.91
		c-2.69-4.62-3.31-9.66,0.46-13.71c6.82-7.33,2.67-15.5,2.6-23.37c-0.01-1.57-1.55-1.92-2.98-2.7c-6.86,4.53-13.66,8.32-18.11,15.43
		c-13.19,21.07-0.61,48.55,24,52.72c19.11,3.24,35.09-9.42,38.77-22.8c2.48-9.01,2.86-18.24-1.91-27.33
		c-0.18-0.41-0.31-0.8-0.41-1.18C509.88,281.95,509.59,281.96,509.27,281.95z"/>
	<path class="st4" d="M510.53,283.09c4.77,9.09,4.39,18.33,1.91,27.33c-3.68,13.38-19.66,26.04-38.77,22.8
		c-24.61-4.17-37.19-31.65-24-52.72c4.45-7.11,11.24-10.9,18.11-15.43c-0.16-0.09-0.32-0.17-0.47-0.27c0.15-0.1,0.29-0.22,0.43-0.32
		c-0.35,0.06-0.71,0.12-1.07,0.18c-1.64,0.82-2.92,1.49-4.21,2.14c-16.6,8.33-24.33,30.26-16.51,46.82
		c12.42,26.28,46.9,29.28,63.84,5.56c7.36-10.3,7.95-27.93,0.83-37.41c-0.16,0.07-0.32,0.12-0.5,0.14
		C510.22,282.29,510.35,282.68,510.53,283.09z"/>
	<path class="st4" d="M470.75,267.78c0.06,7.86,4.22,16.04-2.6,23.37c-3.77,4.05-3.16,9.1-0.46,13.71
		c2.92,5.01,7.36,7.38,13.23,6.91c5.52-0.44,9.45-3.42,10.94-8.47c1.26-4.28,3.7-7.34,6.73-10.28c3.52-3.42,7.08-6.81,10.64-10.77
		c0.02-0.1,0.03-0.19,0.05-0.29c-0.15,0-0.29,0-0.46-0.01c0.03-0.09,0.05-0.18,0.07-0.27c-0.28,0.07-0.56,0.16-0.88,0.3
		c-5,4.54-9.71,8.92-14.21,13.53c-1.17,1.2-2.03,2.98-2.41,4.63c-1.37,5.84-4.72,9.49-9.76,10.2c-5.69,0.79-10.19-1.57-13.05-6.65
		c-2.94-5.21-1.52-9.66,2.07-13.89c1.01-1.19,2.45-2.58,2.5-3.91c0.25-7.31,0.12-14.62,0.12-22.1c-1.83,0.21-3.14,0.36-4.32,0.53
		c-0.39,0.26-0.78,0.52-1.16,0.78C469.19,265.86,470.73,266.21,470.75,267.78z"/>
	<path class="st4" d="M467.77,265.08c0.39-0.26,0.78-0.51,1.16-0.78c-0.41,0.06-0.8,0.12-1.2,0.18c-0.14,0.11-0.28,0.22-0.43,0.32
		C467.46,264.9,467.61,264.99,467.77,265.08z"/>
	<path class="st5" d="M509.32,281.59c0.23-0.02,0.47,0,0.73,0.04c-0.6-2.77,0.84-4.7,2.67-6.63c4.63-4.9,10.01-9,14.47-14.08
		c2.49-2.84,2.88-5.16-0.2-7.85c-2.98-2.6-5.31-2.93-8.39,0.12c-5.43,5.36-9.97,11.61-16.57,16.32c0,0,0,0-0.01,0
		c0.1,0.24,0.12,0.53,0.12,0.92C508.42,273.21,510.18,275.89,509.32,281.59z"/>
	<path class="st5" d="M502.03,269.52c6.6-4.71,11.14-10.96,16.57-16.32c3.08-3.05,5.41-2.72,8.39-0.12c3.08,2.69,2.7,5.01,0.2,7.85
		c-4.46,5.08-9.85,9.18-14.47,14.08c-1.83,1.93-3.27,3.86-2.67,6.63c0.18,0.03,0.35,0.06,0.55,0.12c0,0.01,0.01,0.01,0.01,0.02
		c0.13-0.06,0.25-0.12,0.37-0.21c-1.59-2.12-3.34-0.9,2.43-5.27c5.99-4.54,10.57-10.69,16.05-15.84c3.03-2.84,2.07-5.01-0.69-7.01
		c-2.62-1.88-4.68-6.97-8.78-3.09c-6.25,5.92-11.93,12.44-18.1,18.95C501.95,269.38,501.99,269.45,502.03,269.52
		C502.03,269.52,502.03,269.52,502.03,269.52z"/>
	<path class="st5" d="M508.01,281.98c4.66-2.24,0.41-8.77-5.87-11.54c0,0.02,0,0.03,0,0.06c-0.04,0.04-0.09,0.07-0.13,0.11
		c0.11,0.13,4.18,2.06,4.36,2.2C509.2,276.18,511.22,279.9,508.01,281.98C508.15,281.94,507.86,281.99,508.01,281.98z"/>
	<path class="st5" d="M509.27,281.95c0.32,0,0.61,0,0.85-0.04c-0.02-0.09-0.04-0.18-0.06-0.28c-0.26-0.04-0.5-0.06-0.73-0.04
		C509.31,281.71,509.29,281.83,509.27,281.95z"/>
	<path class="st5" d="M510.06,281.63c0.02,0.09,0.04,0.18,0.06,0.28c0.18-0.03,0.34-0.08,0.5-0.14c0-0.01-0.01-0.01-0.01-0.02
		C510.4,281.69,510.23,281.66,510.06,281.63z"/>
	<path class="st5" d="M509.27,281.95c0.02-0.12,0.04-0.24,0.05-0.36c-0.15,0.01-0.29,0.04-0.44,0.08c-0.03,0.09-0.04,0.18-0.07,0.27
		C508.98,281.95,509.12,281.95,509.27,281.95z"/>
	<path class="st0" d="M489.78,264.7c0.17-0.11,0.36-0.21,0.55-0.31c-0.52-0.06-1-0.12-1.46-0.18
		C489.15,264.37,489.46,264.54,489.78,264.7z"/>
	<path class="st0" d="M501.83,270.3c0.11,0.05,0.2,0.09,0.31,0.14c0-0.39-0.01-0.68-0.12-0.92c-0.06,0-0.12,0-0.18-0.01
		C501.74,269.82,501.73,270.07,501.83,270.3z"/>
	<path class="st0" d="M501.84,269.51c0.06,0,0.12,0.01,0.18,0.01c-0.03-0.07-0.07-0.14-0.12-0.2c0,0-0.01,0.01-0.01,0.01
		C501.86,269.4,501.86,269.45,501.84,269.51z"/>
	<path class="st0" d="M502.14,270.44c-0.1-0.05-0.2-0.09-0.31-0.14c0.04,0.1,0.1,0.2,0.18,0.31c0.04-0.04,0.09-0.07,0.13-0.11
		C502.14,270.47,502.14,270.46,502.14,270.44z"/>
</g>
</svg>
